<svg t="1661235443589" class="icon" viewBox="0 0 1024 1024" version="1.1" xmlns="http://www.w3.org/2000/svg" p-id="4966"><path d="M493.679 769.106l18.799 15.535 18.401-16.004c9.406-8.184 230.437-202.166 230.437-357.323C761.315 273.838 649.473 162 512 162S262.685 273.838 262.685 411.315c0 165.074 221.564 350 230.994 357.791zM512 219.534c105.746 0 191.781 86.03 191.781 191.781 0 97.117-125.107 234.351-192.09 297.092-51.438-46.587-191.472-183.849-191.472-297.092 0-105.751 86.035-191.781 191.781-191.781z" p-id="4967"></path><path d="M697.04 665.209c-15.551 18.724-31.065 36.027-45.695 51.518 80.249 9.989 131.406 27.147 145.868 39.794-1.28 1.119-2.892 2.28-4.74 3.46-0.668 0.428-1.516 0.871-2.258 1.306-1.296 0.758-2.602 1.517-4.12 2.294-1.097 0.562-2.356 1.131-3.568 1.7a136.889 136.889 0 0 1-4.368 1.981 182.006 182.006 0 0 1-4.889 1.981 213.87 213.87 0 0 1-4.495 1.716c-2.017 0.74-4.133 1.482-6.33 2.222a346.32 346.32 0 0 1-12.423 3.907c-1.192 0.349-2.447 0.695-3.678 1.044a434.808 434.808 0 0 1-10.261 2.774c-0.615 0.157-1.276 0.311-1.899 0.468-36.568 9.168-87.143 17.279-149.698 20.948a1176.408 1176.408 0 0 1-24.49 1.18h-0.001c-15.414 0.585-31.317 0.965-47.996 0.965-16.439 0-32.115-0.375-47.326-0.941-8.258-0.309-16.331-0.693-24.216-1.149-0.068-0.005-0.138-0.007-0.207-0.012-62.806-3.643-113.581-11.764-150.281-20.953-0.623-0.157-1.28-0.309-1.894-0.466a426.712 426.712 0 0 1-10.348-2.793c-1.217-0.344-2.456-0.688-3.635-1.032a332.52 332.52 0 0 1-8.142-2.498 307.822 307.822 0 0 1-4.294-1.407 252.682 252.682 0 0 1-6.411-2.247 214.942 214.942 0 0 1-4.462-1.704 180.613 180.613 0 0 1-4.93-1.995 134.72 134.72 0 0 1-4.35-1.974c-1.219-0.571-2.487-1.145-3.591-1.707-1.518-0.777-2.823-1.538-4.119-2.297-0.744-0.435-1.596-0.878-2.266-1.306-1.849-1.185-3.462-2.346-4.743-3.465 14.323-12.525 64.664-29.467 143.58-39.496-14.882-15.407-30.576-32.637-46.243-51.333-81.13 13.656-157.33 39.993-157.33 90.829C166.795 859.041 476.669 862 512 862s345.206-2.959 345.206-105.479c0-51.429-77.982-77.797-160.166-91.312zM607.89 420.904c0-52.871-43.015-95.89-95.89-95.89s-95.89 43.02-95.89 95.89 43.015 95.89 95.89 95.89 95.89-43.019 95.89-95.89z m-134.246 0c0-21.154 17.207-38.356 38.356-38.356s38.356 17.202 38.356 38.356S533.149 459.26 512 459.26s-38.356-17.202-38.356-38.356z" p-id="4968"></path></svg>