<?xml version="1.0" standalone="no"?><!DOCTYPE svg PUBLIC "-//W3C//DTD SVG 1.1//EN" "http://www.w3.org/Graphics/SVG/1.1/DTD/svg11.dtd"><svg class="icon" width="200px" height="200.00px" viewBox="0 0 1024 1024" version="1.1" xmlns="http://www.w3.org/2000/svg"><path d="M1001.472 482.64533333C893.61066667 255.43111111 730.56711111 141.08444445 512 141.08444445c-218.68088889 0-381.61066667 114.34666667-489.472 341.67466666-8.76088889 18.432-8.76088889 40.04977778 0 58.59555556C130.38933333 768.56888889 293.43288889 882.91555555 512 882.91555555c218.68088889 0 381.61066667-114.34666667 489.472-341.67466666 8.76088889-18.432 8.76088889-39.82222222 0-58.59555556zM512 800.99555555c-183.52355555 0-317.89511111-93.07022222-412.672-288.99555555C194.10488889 316.07466667 328.47644445 223.00444445 512 223.00444445c183.52355555 0 317.89511111 93.07022222 412.672 288.99555555C830.00888889 707.92533333 695.63733333 800.99555555 512 800.99555555z"  /><path d="M507.44888889 311.75111111c-110.592 0-200.24888889 89.65688889-200.24888889 200.24888889s89.65688889 200.24888889 200.24888889 200.24888889 200.24888889-89.65688889 200.24888889-200.24888889-89.65688889-200.24888889-200.24888889-200.24888889z m0 327.68c-70.42844445 0-127.43111111-57.00266667-127.43111111-127.43111111s57.00266667-127.43111111 127.43111111-127.43111111 127.43111111 57.00266667 127.43111111 127.43111111-57.00266667 127.43111111-127.43111111 127.43111111z"  /></svg>